Coordinates
version=1
nRows=10
nColumns=63
inDegrees=yes

Units are S.I. units (second, meters, Newtons, ...)
If the header above contains a line with 'inDegrees', this indicates whether rotational values are in degrees (yes) or radians (no).

endheader
time	pelvis_tilt	pelvis_list	pelvis_rotation	pelvis_tx	pelvis_ty	pelvis_tz	hip_flexion_r	hip_adduction_r	hip_rotation_r	knee_angle_r	knee_angle_r_beta	ankle_angle_r	subtalar_angle_r	mtp_angle_r	hip_flexion_l	hip_adduction_l	hip_rotation_l	knee_angle_l	knee_angle_l_beta	ankle_angle_l	subtalar_angle_l	mtp_angle_l	L5_S1_Flex_Ext	L5_S1_Lat_Bending	L5_S1_axial_rotation	L4_L5_Flex_Ext	L4_L5_Lat_Bending	L4_L5_axial_rotation	L3_L4_Flex_Ext	L3_L4_Lat_Bending	L3_L4_axial_rotation	L2_L3_Flex_Ext	L2_L3_Lat_Bending	L2_L3_axial_rotation	L1_L2_Flex_Ext	L1_L2_Lat_Bending	L1_L2_axial_rotation	L1_T12_Flex_Ext	L1_T12_Lat_Bending	L1_T12_axial_rotation	Abs_r3	Abs_r2	Abs_r1	Abs_t1	Abs_t2	neck_flexion	neck_bending	neck_rotation	arm_flex_r	arm_add_r	arm_rot_r	elbow_flex_r	pro_sup_r	wrist_flex_r	wrist_dev_r	arm_flex_l	arm_add_l	arm_rot_l	elbow_flex_l	pro_sup_l	wrist_flex_l	wrist_dev_l
      4.96610169	      0.77605337	    -15.37733975	     83.13920911	      0.17129374	      0.92392690	      0.43757463	     17.55992923	     -0.30485942	     -8.66164077	     10.13761162	      0.17693470	     21.79106808	     13.80422854	      0.00000000	     13.69820379	     -2.91389876	    -19.79095293	      4.36444398	      0.07617392	     23.68070996	     14.31791549	      0.00000000	      0.07546787	      0.31700770	     -0.85759268	      0.14015138	      0.42162024	     -0.91119222	      0.12398617	      0.77077252	     -0.91119222	      0.08625223	      0.77077252	     -0.75039359	      0.07007947	      0.64644210	     -0.69679405	      0.04312234	      0.49104493	     -0.64319451	      0.53905946	      3.58605452	     -4.76967319	      0.00000000	      0.00000000	     22.75030480	     -3.28029892	     -0.42446184	     30.68614584	    -15.26222999	     20.73957379	    145.53524130	     89.05103373	    -12.22839543	      6.13648742	     23.96298408	     -6.39936373	     15.86098151	    149.01677109	     29.23032669	     -0.52339608	      6.76748295
      4.98305085	      0.92280324	    -14.79682636	     82.69679722	      0.17198328	      0.92496836	      0.43529185	     16.84461263	     -0.13613612	     -8.76829376	     10.27816758	      0.17938787	     21.66559937	     14.40418901	      0.00000000	     12.81798190	     -3.09064218	    -20.84368061	      4.34866441	      0.07589851	     23.94705897	     14.95412509	      0.00000000	      0.09455408	      0.30363828	     -0.87788317	      0.17559638	      0.40383891	     -0.93275087	      0.15534290	      0.73826610	     -0.93275087	      0.10806586	      0.73826610	     -0.76814777	      0.08780292	      0.61917917	     -0.71328008	      0.05402820	      0.47033569	     -0.65841238	      0.67539034	      3.43481690	     -4.88252283	      0.00000000	      0.00000000	     22.27212825	     -3.09908607	     -0.08678015	     30.49780519	    -15.23848334	     21.52375256	    145.46275400	     89.05491280	    -11.66667739	      6.58659842	     23.41898091	     -6.77992923	     13.64092344	    148.95817309	     43.03239932	     -0.67678479	      4.09822952
      5.00000000	      0.88338171	    -14.19220945	     81.98895557	      0.17296356	      0.92590617	      0.43324907	     16.22497248	     -0.10732715	     -8.46544047	     10.57726440	      0.18460809	     21.71819232	     14.84225346	      0.00000000	     11.86018166	     -3.08889386	    -22.13654039	      4.22335687	      0.07371148	     24.03767412	     15.47487826	      0.00000000	      0.11157206	      0.27055916	     -0.81881845	      0.20720048	      0.35984369	     -0.86999461	      0.18330174	      0.65783755	     -0.86999461	      0.12751571	      0.65783755	     -0.71646615	      0.10360582	      0.55172425	     -0.66528999	      0.06375228	      0.41909614	     -0.61411384	      0.79694810	      3.06061937	     -4.55402260	      0.00000000	      0.00000000	     22.29253007	     -2.91131305	      0.29859311	     30.33791080	    -15.19781950	     22.31325085	    145.36211537	     89.02976892	    -11.23008544	      6.87093800	     22.92882345	     -6.94886912	     10.26068987	    148.67167652	     62.05788742	      0.58665652	      1.06922422
      5.01694915	      1.25344272	    -13.52783127	     82.19565550	      0.17294770	      0.92677995	      0.43145170	     15.36483730	      0.12121116	     -8.64837719	     10.67520675	      0.18631751	     21.76554899	     14.89262512	      0.00000000	     11.12442283	     -3.40156353	    -22.76660703	      4.63259819	      0.08085409	     24.36552117	     16.03684529	      0.00000000	      0.10862282	      0.27276880	     -0.82690588	      0.20172344	      0.36278251	     -0.87858750	      0.17845643	      0.66321007	     -0.87858750	      0.12414502	      0.66321007	     -0.72354264	      0.10086715	      0.55623014	     -0.67186103	      0.06206708	      0.42251887	     -0.62017941	      0.77588196	      3.08561525	     -4.59900243	      0.00000000	      0.00000000	     22.71415258	     -2.74289515	      0.13665109	     30.13210957	    -15.55332200	     22.91204726	    145.41363396	     88.95310111	    -11.35351301	      6.70246398	     22.76979900	     -7.04295755	      8.29100662	    148.64245633	     79.39715012	     -2.07494793	     -2.51283555
      5.03389831	      1.12522807	    -12.83144836	     82.21731243	      0.17344437	      0.92757989	      0.42996382	     14.62414734	     -0.08059706	     -8.31857416	     10.82408812	      0.18891598	     22.20652304	     14.75841046	      0.00000000	     10.32263305	     -3.20341944	    -23.43329016	      4.80315852	      0.08383093	     24.27583885	     16.40040278	      0.00000000	      0.10896441	      0.20912015	     -0.76716033	      0.20235781	      0.27812980	     -0.81510785	      0.17901763	      0.50845474	     -0.81510785	      0.12453543	      0.50845474	     -0.67126529	      0.10118435	      0.42643782	     -0.62331777	      0.06226226	      0.32392712	     -0.57537025	      0.77832189	      2.36560900	     -4.26671562	      0.00000000	      0.00000000	     23.73548636	     -2.67591694	     -0.48875822	     29.53629963	    -15.67730730	     23.39614117	    145.67160833	     88.85120900	    -11.69489562	      6.56095807	     22.88304004	     -7.39123860	      6.96980101	    148.46310999	     85.66178512	     -2.15428016	     -5.24459076
      5.05084746	      1.18503727	    -12.12602645	     82.40005352	      0.17380799	      0.92841321	      0.42859979	     13.80280729	     -0.08321471	     -7.83207733	     10.75508028	      0.18771156	     22.67460379	     14.48156317	      0.00000000	      9.57022445	     -3.20397535	    -23.87523666	      5.12513861	      0.08945054	     24.27949529	     16.67771781	      0.00000000	      0.09786828	      0.16533935	     -0.69437999	      0.18175118	      0.21990134	     -0.73777874	      0.16078780	      0.40200610	     -0.73777874	      0.11185366	      0.40200610	     -0.60758249	      0.09088049	      0.33716001	     -0.56418374	      0.05592194	      0.25611066	     -0.52078499	      0.69906334	      1.87035182	     -3.86193319	      0.00000000	      0.00000000	     25.21112551	     -2.81374875	     -1.11713742	     28.82651027	    -15.73238775	     23.72835999	    146.04282194	     88.68614954	    -12.23658912	      6.45184850	     23.05404051	     -7.57928833	      6.42895555	    148.40484229	     87.36424215	     -2.25416926	     -6.75969288
      5.06779661	      1.19608298	    -11.54585552	     82.42501247	      0.17434907	      0.92918842	      0.42706209	     13.09716310	      0.00986458	     -6.18469015	     10.52054762	      0.18361820	     23.05919734	     12.95578383	      0.00000000	      8.88815531	     -3.18242526	    -24.57287619	      5.34477975	      0.09328400	     24.18977515	     17.16993040	      0.00000000	      0.11553782	      0.11193222	     -0.51795690	      0.21456528	      0.14886985	     -0.55032920	      0.18981708	      0.27215199	     -0.55032920	      0.13204817	      0.27215199	     -0.45321229	      0.10728842	      0.22825218	     -0.42083998	      0.06601831	      0.17338300	     -0.38846767	      0.82527508	      1.26619963	     -2.88072088	      0.00000000	      0.00000000	     26.42415610	     -3.31228561	     -2.52955970	     27.85399064	    -15.96044811	     24.08347741	    146.67142312	     88.45624034	    -14.10927183	      6.15442669	     23.31493678	     -7.61525854	      6.73542825	    148.11770479	     87.59286230	     -1.89609363	     -8.26883546
      5.08474576	      1.25771198	    -10.97180392	     82.89500300	      0.17420595	      0.92995006	      0.42530481	     12.33503586	     -0.04111844	     -6.00719233	     10.29878688	      0.17974774	     23.56164319	     12.76887723	      0.00000000	      8.27706693	     -3.13730952	    -24.41434659	      5.59206424	      0.09759993	     24.09227108	     17.30983850	      0.00000000	      0.13460699	      0.07360830	     -0.44755402	      0.24997865	      0.09789903	     -0.47552615	      0.22114583	      0.17897121	     -0.47552615	      0.15384233	      0.17897121	     -0.39160977	      0.12499605	      0.15010204	     -0.36363764	      0.07691444	      0.11401925	     -0.33566552	      0.96148430	      0.83267176	     -2.48916120	      0.00000000	      0.00000000	     27.36040247	     -3.68272910	     -2.96100259	     27.09395303	    -15.90410931	     24.04303030	    147.10227047	     88.13499881	    -14.45924515	      6.29468580	     23.37910682	     -7.69737280	      7.12687493	    148.19771962	     87.34525847	     -1.44886663	     -8.42582880
      5.10169492	      1.24074818	    -10.21852443	     83.65374421	      0.17395443	      0.93092799	      0.42372000	     11.14877302	     -0.14739712	     -5.66526397	      9.58641054	      0.16731443	     23.66910691	     11.83629759	      0.00000000	      7.50040480	     -2.95704303	    -23.82582245	      5.71620406	      0.09976658	     23.73500156	     17.45279166	      0.00000000	      0.11533359	     -0.00335190	     -0.28147363	      0.21418601	     -0.00445803	     -0.29906573	      0.18948155	     -0.00814981	     -0.29906573	      0.13181476	     -0.00814981	     -0.24628942	      0.10709877	     -0.00683520	     -0.22869732	      0.06590161	     -0.00519209	     -0.21110522	      0.82381629	     -0.03791737	     -1.56547187	      0.00000000	      0.00000000	     27.68871758	     -4.84226164	     -6.08132145	     26.10156451	    -16.15086803	     23.39465870	    148.03885145	     87.65383165	    -16.06087593	      7.00464275	     24.40684453	     -7.41157828	      8.38254771	    147.58539231	     85.86334994	      0.48620692	     -8.10033073
      5.11864407	      1.29252306	     -9.79442485	     84.06771487	      0.17362061	      0.93144837	      0.42220645	     10.53798690	     -0.08757472	     -4.44759474	      9.46157541	      0.16513564	     23.71688497	      9.89623279	      0.00000000	      7.03743009	     -2.91196718	    -23.25881909	      5.88747325	      0.10275579	     23.49313192	     17.26693028	      0.00000000	      0.13665174	     -0.04913420	     -0.09787087	      0.25377594	     -0.06534849	     -0.10398780	      0.22450514	     -0.11946490	     -0.10398780	      0.15617927	     -0.11946490	     -0.08563702	      0.12689480	     -0.10019446	     -0.07952009	      0.07808280	     -0.07610888	     -0.07340316	      0.97608969	     -0.55581591	     -0.54432844	      0.00000000	      0.00000000	     27.79340761	     -5.89349254	     -8.20319036	     25.55540403	    -16.52945678	     23.13561108	    148.67792072	     87.29079162	    -17.69780256	      6.63762323	     25.17554184	     -6.73337803	      8.45570296	    147.22459969	     81.92671374	      5.96623862	     -5.70938834
